<svg xmlns="http://www.w3.org/2000/svg" viewBox="0 0 515 84"><style type="text/css">.st0{fill:#FFFFFF;}.st1{fill:#96B545;}.st2{fill:#010101;}.st3{fill-rule:evenodd;clip-rule:evenodd;fill:#010101;}</style><path class="st0" d="M227.5 15c-1.8-2.3-5.4-3.4-8.1-3.4 -3.2 0-7.5 1.4-7.5 5.2 0 9.2 23.4 3.3 23.4 21.1 0 11.3-9.1 16.7-19.6 16.7 -6.5 0-12.3-1.9-17.1-6.4l8-8.7c2.3 3 6 4.8 9.7 4.8 3.7 0 7.7-1.7 7.7-5.3 0-9.3-23.8-4.3-23.8-21.2 0-10.8 9.4-16.5 19.3-16.5 5.7 0 11.2 1.5 15.5 5.3L227.5 15z"/><path class="st0" d="M260.6 49.5h-0.1c-2.3 3.7-6.6 5.2-11 5.2 -6.5 0-12.3-3.7-12.3-10.7 0-11.9 14.5-12.2 23.4-12.2 0-3.8-3.1-6.2-6.8-6.2 -3.5 0-6.4 1.6-8.7 4.1l-5.7-5.8c3.9-3.7 9.6-5.5 15.2-5.5 12.4 0 15.8 6.3 15.8 17.9v18.4h-9.8L260.6 49.5 260.6 49.5zM258 38.7c-3.3 0-10.5 0.3-10.5 5 0 2.6 2.7 3.8 5 3.8 4.2 0 8.1-2.2 8.1-6.5v-2.3H258z"/><path class="st0" d="M274 1.4h10.7v53.2H274V1.4z"/><path class="st0" d="M321.9 47.8c-3.4 4.3-9 6.8-14.6 6.8 -10.7 0-19.2-7.1-19.2-18.1s8.5-18.1 19.2-18.1c10 0 16.2 7.1 16.2 18.1v3.3h-24.8c0.9 4.1 3.9 6.7 8 6.7 3.5 0 5.8-1.8 7.6-4.2L321.9 47.8zM312.9 32.6c0.1-3.6-2.7-6.5-6.5-6.5 -4.7 0-7.3 3.2-7.5 6.5L312.9 32.6 312.9 32.6z"/><path class="st1" d="M0 1.6h34.3v6.8H7.2v15.8h25.2v6.8H7.2v17h28.4v6.8H0V1.6z"/><path class="st1" d="M59.9 27.1c-0.8-1-1.8-1.8-3-2.5 -1.2-0.7-2.6-1-4.3-1 -1.6 0-3 0.3-4.2 1 -1.2 0.7-1.8 1.7-1.8 3 0 1.1 0.3 1.9 1 2.6 0.7 0.7 1.5 1.2 2.4 1.6 0.9 0.4 1.9 0.7 3 0.9 1.1 0.2 2 0.4 2.7 0.5 1.4 0.4 2.8 0.8 4.1 1.3 1.3 0.5 2.4 1.2 3.3 2 0.9 0.8 1.7 1.8 2.2 2.9 0.5 1.2 0.8 2.6 0.8 4.2 0 2-0.4 3.7-1.3 5.1 -0.9 1.4-2 2.6-3.3 3.5 -1.4 0.9-2.9 1.6-4.6 2 -1.7 0.4-3.5 0.6-5.2 0.6 -3 0-5.5-0.4-7.8-1.4 -2.2-0.9-4.2-2.6-6-5l5.1-4.2c1.1 1.1 2.3 2.1 3.7 2.9s3 1.3 5 1.3c0.9 0 1.7-0.1 2.6-0.3 0.9-0.2 1.7-0.4 2.3-0.8 0.7-0.4 1.2-0.9 1.7-1.4 0.4-0.6 0.6-1.2 0.6-2 0-1-0.3-1.8-0.9-2.5 -0.6-0.7-1.4-1.2-2.3-1.5 -0.9-0.4-1.8-0.7-2.8-0.9 -1-0.2-1.8-0.4-2.6-0.6 -1.5-0.3-2.8-0.7-4.1-1.2 -1.3-0.4-2.5-1-3.5-1.8 -1-0.7-1.8-1.7-2.4-2.9 -0.6-1.1-0.9-2.6-0.9-4.3 0-1.9 0.4-3.5 1.2-4.8 0.8-1.4 1.8-2.5 3.1-3.4 1.3-0.9 2.7-1.6 4.4-2s3.3-0.7 4.9-0.7c2.4 0 4.7 0.4 6.9 1.4 2.2 0.9 4 2.4 5.3 4.5L59.9 27.1z"/><path class="st1" d="M90.2 24.1h-9.7v16.1c0 1 0 2 0.1 3 0 1 0.2 1.9 0.6 2.6 0.3 0.8 0.8 1.4 1.5 1.9 0.7 0.5 1.7 0.7 3 0.7 0.8 0 1.6-0.1 2.5-0.2 0.9-0.1 1.6-0.4 2.3-0.8v6.2c-0.8 0.4-1.8 0.8-3.1 0.9 -1.3 0.2-2.3 0.3-3 0.3 -2.6 0-4.6-0.4-6-1.1 -1.4-0.7-2.5-1.7-3.2-2.8 -0.7-1.1-1.1-2.4-1.2-3.9 -0.1-1.4-0.2-2.9-0.2-4.3V24.1H66v-5.9h7.8v-10h6.8v10h9.7L90.2 24.1 90.2 24.1z"/><path class="st1" d="M95.9 22.6c1.9-1.8 4.1-3.1 6.6-3.9 2.5-0.9 5-1.3 7.5-1.3 2.6 0 4.8 0.3 6.7 1 1.9 0.7 3.4 1.5 4.6 2.6 1.2 1.1 2.1 2.4 2.7 3.8s0.9 2.9 0.9 4.5v18.2c0 1.3 0 2.4 0.1 3.5 0 1.1 0.1 2.1 0.2 3h-6c-0.1-1.8-0.2-3.6-0.2-5.4h-0.1c-1.5 2.3-3.3 3.9-5.3 4.9 -2.1 1-4.4 1.4-7.1 1.4 -1.7 0-3.2-0.2-4.7-0.7 -1.5-0.5-2.8-1.1-3.9-2 -1.1-0.9-2-2-2.7-3.3 -0.7-1.3-1-2.9-1-4.6 0-2.3 0.5-4.2 1.5-5.8 1-1.6 2.4-2.8 4.2-3.8 1.8-1 3.9-1.7 6.2-2.1 2.4-0.4 4.9-0.6 7.6-0.6h5v-1.5c0-0.9-0.2-1.8-0.5-2.7 -0.4-0.9-0.9-1.7-1.6-2.4 -0.7-0.7-1.6-1.3-2.6-1.7 -1-0.4-2.3-0.6-3.8-0.6 -1.3 0-2.4 0.1-3.4 0.4 -1 0.3-1.9 0.6-2.7 0.9 -0.8 0.4-1.5 0.8-2.2 1.3 -0.7 0.5-1.3 1-1.9 1.4L95.9 22.6zM115 36.7c-1.6 0-3.2 0.1-4.9 0.3 -1.7 0.2-3.2 0.5-4.6 1 -1.4 0.5-2.5 1.2-3.4 2.1 -0.9 0.9-1.3 2.1-1.3 3.5 0 2.1 0.7 3.5 2.1 4.4 1.4 0.9 3.2 1.4 5.6 1.4 1.9 0 3.4-0.3 4.7-0.9 1.3-0.6 2.4-1.4 3.2-2.4 0.8-1 1.4-2.1 1.7-3.3 0.3-1.2 0.5-2.4 0.5-3.6v-2.3L115 36.7 115 36.7z"/><path class="st1" d="M150.6 24.1H141v16.1c0 1 0 2 0.1 3 0 1 0.2 1.9 0.6 2.6 0.3 0.8 0.8 1.4 1.5 1.9 0.7 0.5 1.7 0.7 3 0.7 0.8 0 1.6-0.1 2.5-0.2 0.9-0.1 1.6-0.4 2.3-0.8v6.2c-0.8 0.4-1.8 0.8-3.1 0.9 -1.3 0.2-2.3 0.3-3 0.3 -2.6 0-4.6-0.4-6-1.1 -1.4-0.7-2.5-1.7-3.2-2.8 -0.7-1.1-1.1-2.4-1.2-3.9 -0.1-1.4-0.2-2.9-0.2-4.3V24.1h-7.8v-5.9h7.8v-10h6.8v10h9.7V24.1z"/><path class="st1" d="M161.3 38.5c0 1.6 0.3 3 1 4.2 0.7 1.3 1.6 2.4 2.7 3.3 1.1 0.9 2.4 1.6 3.8 2.1 1.4 0.5 3 0.7 4.5 0.7 2.1 0 3.9-0.5 5.5-1.5 1.6-1 3-2.3 4.3-3.9l5.1 3.9c-3.8 4.9-9 7.3-15.8 7.3 -2.8 0-5.3-0.5-7.6-1.4 -2.3-1-4.2-2.3-5.8-3.9 -1.6-1.7-2.8-3.7-3.6-5.9 -0.9-2.3-1.3-4.7-1.3-7.4 0-2.7 0.5-5.1 1.4-7.4 0.9-2.3 2.2-4.3 3.8-5.9 1.6-1.7 3.6-3 5.8-3.9 2.3-1 4.7-1.4 7.4-1.4 3.2 0 5.8 0.6 8 1.7 2.2 1.1 4 2.5 5.4 4.3 1.4 1.8 2.4 3.8 3 6 0.6 2.2 0.9 4.5 0.9 6.8v2.4H161.3zM182.6 33.1c-0.1-1.5-0.3-2.9-0.7-4.1 -0.4-1.3-1.1-2.3-1.9-3.3 -0.9-0.9-1.9-1.7-3.2-2.2s-2.8-0.8-4.5-0.8c-1.7 0-3.2 0.3-4.5 0.9s-2.5 1.4-3.5 2.4 -1.7 2.1-2.2 3.3 -0.8 2.4-0.8 3.6L182.6 33.1 182.6 33.1z"/><path class="st0" d="M382.8 1.4h9.5l29.3 43.8h0.1V1.4h7.2v53.2h-9.2l-29.6-43.8H390v43.8h-7.2L382.8 1.4 382.8 1.4z"/><path class="st0" d="M434.5 1.4h34.4v6.8h-27.1v15.9H467v6.8h-25.3v17.1h27.2v6.8h-34.4V1.4z"/><path class="st0" d="M490.6 8.2h-17.1V1.4H515v6.8h-17.1v46.5h-7.2L490.6 8.2 490.6 8.2z"/><path class="st2" d="M355.3 44.8c0 1-0.3 1.8-0.5 2.6 5.2 1.1 9 2.4 9 2.4l0.3-2.9C360.7 46 357.7 45.3 355.3 44.8z"/><path class="st0" d="M343.6 44.1c0 1-0.7 1.6-1.8 2l0.1 0c0 0-1.5 0.5-1.6 1.6 0 2.6 8 4.6 9.2 4.3 2.8-1.8 4.7-4.5 4.7-8.7 0-13.2-18-8.8-18-13.9 0-2.1 2.1-2.8 3.9-2.8 2.6 0 4.6 1 6.2 2.9l6.5-6.5c-3.2-3.4-8.3-4.6-12.8-4.6 -7.3 0-14.5 3.6-14.5 11.7C325.6 43.2 343.6 38.5 343.6 44.1z"/><path class="st3" d="M367.7 48.2c-0.1 0.2-0.3 0.5-0.3 0.5 -2.3 0.7-4.6-0.2-4.6-0.2s-0.5 0.4-0.5 1.3c0 0 0 0.1 0 0.1 -1.9 1-6.4 3-11.9 2.8 -7.4-0.2-12.5-4.2-10.4-5.9 0.7-0.5 1.5-0.8 2.4-0.9 0.8-0.4 1.3-1 1.3-1.8 0-0.2 0-0.4-0.1-0.6 -1.8-0.1-5.6 0-6.9 2.9 -1.7 3.9 5.6 9.3 15 8.8 8.7-0.5 12-3.3 12.4-3.8 4.3 0.4 4.6-0.8 4.6-1.7C368.6 48.7 367.7 48.2 367.7 48.2z"/><path class="st0" d="M336.6 46.4C336.6 46.4 336.6 46.3 336.6 46.4c-2.1-0.5-3.9-1.7-5.4-3.6l-6.5 7.2c3.4 3.5 8.8 4.7 13.6 4.7 1.8 0 3.6-0.2 5.3-0.5C338.6 52.5 335.5 49.1 336.6 46.4z"/><path class="st1" d="M378.8 41.5l-14.8 1.3 -0.5 6.7c0.7 0.2 2.3 0.6 3.9 0.1 0.1-1.6 1.4-2.9 3.1-2.9 1.7 0 3.1 1.4 3.1 3.1s-1.4 3.1-3.1 3.1c-0.9 0-1.7-0.4-2.3-1.1 -0.6 0.3-1.7 0.5-3.8 0.3 -0.1 0.1-0.5 0.5-1.2 0.9l-0.4 4.7 29.7 24.8 17.7-20.1L378.8 41.5z"/></svg>